G04 #@! TF.FileFunction,Copper,L2,Bot,Signal*
%FSLAX46Y46*%
G04 Gerber Fmt 4.6, Leading zero omitted, Abs format (unit mm)*
G04 Created by KiCad (PCBNEW 4.0.2-1.fc23-product) date Wed 28 Dec 2016 04:25:50 PM CST*
%MOMM*%
G01*
G04 APERTURE LIST*
%ADD10C,0.100000*%
%ADD11R,1.701800X1.701800*%
%ADD12C,1.778000*%
%ADD13C,2.540000*%
%ADD14C,3.500000*%
%ADD15C,0.800000*%
%ADD16C,0.254000*%
G04 APERTURE END LIST*
D10*
D11*
X85217000Y-90170000D03*
D12*
X85217000Y-92710000D03*
X85217000Y-95250000D03*
X85217000Y-97790000D03*
X85217000Y-100330000D03*
X85217000Y-102870000D03*
D13*
X95885000Y-90805000D03*
X95885000Y-96520000D03*
X95885000Y-102362000D03*
X90551000Y-102362000D03*
D14*
X111190000Y-96520000D03*
X115190000Y-96520000D03*
X119190000Y-96620000D03*
X123190000Y-96520000D03*
X129690000Y-96520000D03*
X133690000Y-96520000D03*
X137690000Y-96520000D03*
D15*
X89154000Y-99187000D03*
D16*
X110109000Y-99187000D02*
X110490000Y-99187000D01*
X111190000Y-98487000D02*
X111190000Y-96520000D01*
X110490000Y-99187000D02*
X111190000Y-98487000D01*
X89154000Y-99187000D02*
X110109000Y-99187000D01*
X110109000Y-99187000D02*
X110236000Y-99187000D01*
G36*
X145340000Y-105970000D02*
X81990000Y-105970000D01*
X81990000Y-103171812D01*
X83692736Y-103171812D01*
X83924262Y-103732149D01*
X84352596Y-104161231D01*
X84912528Y-104393735D01*
X85518812Y-104394264D01*
X86079149Y-104162738D01*
X86508231Y-103734404D01*
X86518457Y-103709777D01*
X89382828Y-103709777D01*
X89514520Y-104004657D01*
X90222036Y-104276261D01*
X90979632Y-104256436D01*
X91587480Y-104004657D01*
X91719172Y-103709777D01*
X90551000Y-102541605D01*
X89382828Y-103709777D01*
X86518457Y-103709777D01*
X86740735Y-103174472D01*
X86741264Y-102568188D01*
X86520145Y-102033036D01*
X88636739Y-102033036D01*
X88656564Y-102790632D01*
X88908343Y-103398480D01*
X89203223Y-103530172D01*
X90371395Y-102362000D01*
X90730605Y-102362000D01*
X91898777Y-103530172D01*
X92193657Y-103398480D01*
X92446719Y-102739265D01*
X93979670Y-102739265D01*
X94269078Y-103439686D01*
X94804495Y-103976039D01*
X95504410Y-104266668D01*
X96262265Y-104267330D01*
X96962686Y-103977922D01*
X97499039Y-103442505D01*
X97789668Y-102742590D01*
X97790330Y-101984735D01*
X97500922Y-101284314D01*
X96965505Y-100747961D01*
X96265590Y-100457332D01*
X95507735Y-100456670D01*
X94807314Y-100746078D01*
X94270961Y-101281495D01*
X93980332Y-101981410D01*
X93979670Y-102739265D01*
X92446719Y-102739265D01*
X92465261Y-102690964D01*
X92445436Y-101933368D01*
X92193657Y-101325520D01*
X91898777Y-101193828D01*
X90730605Y-102362000D01*
X90371395Y-102362000D01*
X89203223Y-101193828D01*
X88908343Y-101325520D01*
X88636739Y-102033036D01*
X86520145Y-102033036D01*
X86509738Y-102007851D01*
X86081404Y-101578769D01*
X86054494Y-101567595D01*
X86109591Y-101402196D01*
X85217000Y-100509605D01*
X84324409Y-101402196D01*
X84379353Y-101567138D01*
X84354851Y-101577262D01*
X83925769Y-102005596D01*
X83693265Y-102565528D01*
X83692736Y-103171812D01*
X81990000Y-103171812D01*
X81990000Y-100091965D01*
X83681484Y-100091965D01*
X83707277Y-100697700D01*
X83889461Y-101137533D01*
X84144804Y-101222591D01*
X85037395Y-100330000D01*
X85396605Y-100330000D01*
X86289196Y-101222591D01*
X86544539Y-101137533D01*
X86589571Y-101014223D01*
X89382828Y-101014223D01*
X90551000Y-102182395D01*
X91719172Y-101014223D01*
X91587480Y-100719343D01*
X90879964Y-100447739D01*
X90122368Y-100467564D01*
X89514520Y-100719343D01*
X89382828Y-101014223D01*
X86589571Y-101014223D01*
X86752516Y-100568035D01*
X86726723Y-99962300D01*
X86544539Y-99522467D01*
X86289196Y-99437409D01*
X85396605Y-100330000D01*
X85037395Y-100330000D01*
X84144804Y-99437409D01*
X83889461Y-99522467D01*
X83681484Y-100091965D01*
X81990000Y-100091965D01*
X81990000Y-93011812D01*
X83692736Y-93011812D01*
X83924262Y-93572149D01*
X84331737Y-93980336D01*
X83925769Y-94385596D01*
X83693265Y-94945528D01*
X83692736Y-95551812D01*
X83924262Y-96112149D01*
X84331737Y-96520336D01*
X83925769Y-96925596D01*
X83693265Y-97485528D01*
X83692736Y-98091812D01*
X83924262Y-98652149D01*
X84352596Y-99081231D01*
X84379506Y-99092405D01*
X84324409Y-99257804D01*
X85217000Y-100150395D01*
X85975424Y-99391971D01*
X88118821Y-99391971D01*
X88276058Y-99772515D01*
X88566954Y-100063919D01*
X88947223Y-100221820D01*
X89358971Y-100222179D01*
X89739515Y-100064942D01*
X89855659Y-99949000D01*
X110490000Y-99949000D01*
X110781605Y-99890996D01*
X111028815Y-99725815D01*
X111728815Y-99025816D01*
X111893996Y-98778605D01*
X111918509Y-98655370D01*
X111945884Y-98517748D01*
X112397800Y-98331020D01*
X112998909Y-97730959D01*
X113190068Y-97270598D01*
X113378980Y-97727800D01*
X113979041Y-98328909D01*
X114763459Y-98654628D01*
X115612815Y-98655370D01*
X116397800Y-98331020D01*
X116998909Y-97730959D01*
X117169357Y-97320475D01*
X117378980Y-97827800D01*
X117979041Y-98428909D01*
X118763459Y-98754628D01*
X119612815Y-98755370D01*
X120397800Y-98431020D01*
X120998909Y-97830959D01*
X121210778Y-97320722D01*
X121378980Y-97727800D01*
X121979041Y-98328909D01*
X122763459Y-98654628D01*
X123612815Y-98655370D01*
X124397800Y-98331020D01*
X124998909Y-97730959D01*
X125324628Y-96946541D01*
X125324631Y-96942815D01*
X127554630Y-96942815D01*
X127878980Y-97727800D01*
X128479041Y-98328909D01*
X129263459Y-98654628D01*
X130112815Y-98655370D01*
X130897800Y-98331020D01*
X131498909Y-97730959D01*
X131690068Y-97270598D01*
X131878980Y-97727800D01*
X132479041Y-98328909D01*
X133263459Y-98654628D01*
X134112815Y-98655370D01*
X134897800Y-98331020D01*
X135195368Y-98033970D01*
X136355635Y-98033970D01*
X136515418Y-98352739D01*
X137306187Y-98662723D01*
X138155387Y-98646497D01*
X138864582Y-98352739D01*
X139024365Y-98033970D01*
X137690000Y-96699605D01*
X136355635Y-98033970D01*
X135195368Y-98033970D01*
X135498909Y-97730959D01*
X135685849Y-97280757D01*
X135857261Y-97694582D01*
X136176030Y-97854365D01*
X137510395Y-96520000D01*
X137869605Y-96520000D01*
X139203970Y-97854365D01*
X139522739Y-97694582D01*
X139832723Y-96903813D01*
X139816497Y-96054613D01*
X139522739Y-95345418D01*
X139203970Y-95185635D01*
X137869605Y-96520000D01*
X137510395Y-96520000D01*
X136176030Y-95185635D01*
X135857261Y-95345418D01*
X135690510Y-95770800D01*
X135501020Y-95312200D01*
X135195384Y-95006030D01*
X136355635Y-95006030D01*
X137690000Y-96340395D01*
X139024365Y-95006030D01*
X138864582Y-94687261D01*
X138073813Y-94377277D01*
X137224613Y-94393503D01*
X136515418Y-94687261D01*
X136355635Y-95006030D01*
X135195384Y-95006030D01*
X134900959Y-94711091D01*
X134116541Y-94385372D01*
X133267185Y-94384630D01*
X132482200Y-94708980D01*
X131881091Y-95309041D01*
X131689932Y-95769402D01*
X131501020Y-95312200D01*
X130900959Y-94711091D01*
X130116541Y-94385372D01*
X129267185Y-94384630D01*
X128482200Y-94708980D01*
X127881091Y-95309041D01*
X127555372Y-96093459D01*
X127554630Y-96942815D01*
X125324631Y-96942815D01*
X125325370Y-96097185D01*
X125001020Y-95312200D01*
X124400959Y-94711091D01*
X123616541Y-94385372D01*
X122767185Y-94384630D01*
X121982200Y-94708980D01*
X121381091Y-95309041D01*
X121169222Y-95819278D01*
X121001020Y-95412200D01*
X120400959Y-94811091D01*
X119616541Y-94485372D01*
X118767185Y-94484630D01*
X117982200Y-94808980D01*
X117381091Y-95409041D01*
X117210643Y-95819525D01*
X117001020Y-95312200D01*
X116400959Y-94711091D01*
X115616541Y-94385372D01*
X114767185Y-94384630D01*
X113982200Y-94708980D01*
X113381091Y-95309041D01*
X113189932Y-95769402D01*
X113001020Y-95312200D01*
X112400959Y-94711091D01*
X111616541Y-94385372D01*
X110767185Y-94384630D01*
X109982200Y-94708980D01*
X109381091Y-95309041D01*
X109055372Y-96093459D01*
X109054630Y-96942815D01*
X109378980Y-97727800D01*
X109979041Y-98328909D01*
X110184957Y-98414413D01*
X110174370Y-98425000D01*
X96263064Y-98425000D01*
X96962686Y-98135922D01*
X97499039Y-97600505D01*
X97789668Y-96900590D01*
X97790330Y-96142735D01*
X97500922Y-95442314D01*
X96965505Y-94905961D01*
X96265590Y-94615332D01*
X95507735Y-94614670D01*
X94807314Y-94904078D01*
X94270961Y-95439495D01*
X93980332Y-96139410D01*
X93979670Y-96897265D01*
X94269078Y-97597686D01*
X94804495Y-98134039D01*
X95504410Y-98424668D01*
X95884482Y-98425000D01*
X89855765Y-98425000D01*
X89741046Y-98310081D01*
X89360777Y-98152180D01*
X88949029Y-98151821D01*
X88568485Y-98309058D01*
X88277081Y-98599954D01*
X88119180Y-98980223D01*
X88118821Y-99391971D01*
X85975424Y-99391971D01*
X86109591Y-99257804D01*
X86054647Y-99092862D01*
X86079149Y-99082738D01*
X86508231Y-98654404D01*
X86740735Y-98094472D01*
X86741264Y-97488188D01*
X86509738Y-96927851D01*
X86102263Y-96519664D01*
X86508231Y-96114404D01*
X86740735Y-95554472D01*
X86741264Y-94948188D01*
X86509738Y-94387851D01*
X86102263Y-93979664D01*
X86508231Y-93574404D01*
X86740735Y-93014472D01*
X86741264Y-92408188D01*
X86509738Y-91847851D01*
X86289008Y-91626736D01*
X86303217Y-91624062D01*
X86519341Y-91484990D01*
X86664331Y-91272790D01*
X86682662Y-91182265D01*
X93979670Y-91182265D01*
X94269078Y-91882686D01*
X94804495Y-92419039D01*
X95504410Y-92709668D01*
X96262265Y-92710330D01*
X96962686Y-92420922D01*
X97499039Y-91885505D01*
X97789668Y-91185590D01*
X97790330Y-90427735D01*
X97500922Y-89727314D01*
X96965505Y-89190961D01*
X96265590Y-88900332D01*
X95507735Y-88899670D01*
X94807314Y-89189078D01*
X94270961Y-89724495D01*
X93980332Y-90424410D01*
X93979670Y-91182265D01*
X86682662Y-91182265D01*
X86715340Y-91020900D01*
X86715340Y-89319100D01*
X86671062Y-89083783D01*
X86531990Y-88867659D01*
X86319790Y-88722669D01*
X86067900Y-88671660D01*
X84366100Y-88671660D01*
X84130783Y-88715938D01*
X83914659Y-88855010D01*
X83769669Y-89067210D01*
X83718660Y-89319100D01*
X83718660Y-91020900D01*
X83762938Y-91256217D01*
X83902010Y-91472341D01*
X84114210Y-91617331D01*
X84147649Y-91624103D01*
X83925769Y-91845596D01*
X83693265Y-92405528D01*
X83692736Y-93011812D01*
X81990000Y-93011812D01*
X81990000Y-87070000D01*
X145340000Y-87070000D01*
X145340000Y-105970000D01*
X145340000Y-105970000D01*
G37*
X145340000Y-105970000D02*
X81990000Y-105970000D01*
X81990000Y-103171812D01*
X83692736Y-103171812D01*
X83924262Y-103732149D01*
X84352596Y-104161231D01*
X84912528Y-104393735D01*
X85518812Y-104394264D01*
X86079149Y-104162738D01*
X86508231Y-103734404D01*
X86518457Y-103709777D01*
X89382828Y-103709777D01*
X89514520Y-104004657D01*
X90222036Y-104276261D01*
X90979632Y-104256436D01*
X91587480Y-104004657D01*
X91719172Y-103709777D01*
X90551000Y-102541605D01*
X89382828Y-103709777D01*
X86518457Y-103709777D01*
X86740735Y-103174472D01*
X86741264Y-102568188D01*
X86520145Y-102033036D01*
X88636739Y-102033036D01*
X88656564Y-102790632D01*
X88908343Y-103398480D01*
X89203223Y-103530172D01*
X90371395Y-102362000D01*
X90730605Y-102362000D01*
X91898777Y-103530172D01*
X92193657Y-103398480D01*
X92446719Y-102739265D01*
X93979670Y-102739265D01*
X94269078Y-103439686D01*
X94804495Y-103976039D01*
X95504410Y-104266668D01*
X96262265Y-104267330D01*
X96962686Y-103977922D01*
X97499039Y-103442505D01*
X97789668Y-102742590D01*
X97790330Y-101984735D01*
X97500922Y-101284314D01*
X96965505Y-100747961D01*
X96265590Y-100457332D01*
X95507735Y-100456670D01*
X94807314Y-100746078D01*
X94270961Y-101281495D01*
X93980332Y-101981410D01*
X93979670Y-102739265D01*
X92446719Y-102739265D01*
X92465261Y-102690964D01*
X92445436Y-101933368D01*
X92193657Y-101325520D01*
X91898777Y-101193828D01*
X90730605Y-102362000D01*
X90371395Y-102362000D01*
X89203223Y-101193828D01*
X88908343Y-101325520D01*
X88636739Y-102033036D01*
X86520145Y-102033036D01*
X86509738Y-102007851D01*
X86081404Y-101578769D01*
X86054494Y-101567595D01*
X86109591Y-101402196D01*
X85217000Y-100509605D01*
X84324409Y-101402196D01*
X84379353Y-101567138D01*
X84354851Y-101577262D01*
X83925769Y-102005596D01*
X83693265Y-102565528D01*
X83692736Y-103171812D01*
X81990000Y-103171812D01*
X81990000Y-100091965D01*
X83681484Y-100091965D01*
X83707277Y-100697700D01*
X83889461Y-101137533D01*
X84144804Y-101222591D01*
X85037395Y-100330000D01*
X85396605Y-100330000D01*
X86289196Y-101222591D01*
X86544539Y-101137533D01*
X86589571Y-101014223D01*
X89382828Y-101014223D01*
X90551000Y-102182395D01*
X91719172Y-101014223D01*
X91587480Y-100719343D01*
X90879964Y-100447739D01*
X90122368Y-100467564D01*
X89514520Y-100719343D01*
X89382828Y-101014223D01*
X86589571Y-101014223D01*
X86752516Y-100568035D01*
X86726723Y-99962300D01*
X86544539Y-99522467D01*
X86289196Y-99437409D01*
X85396605Y-100330000D01*
X85037395Y-100330000D01*
X84144804Y-99437409D01*
X83889461Y-99522467D01*
X83681484Y-100091965D01*
X81990000Y-100091965D01*
X81990000Y-93011812D01*
X83692736Y-93011812D01*
X83924262Y-93572149D01*
X84331737Y-93980336D01*
X83925769Y-94385596D01*
X83693265Y-94945528D01*
X83692736Y-95551812D01*
X83924262Y-96112149D01*
X84331737Y-96520336D01*
X83925769Y-96925596D01*
X83693265Y-97485528D01*
X83692736Y-98091812D01*
X83924262Y-98652149D01*
X84352596Y-99081231D01*
X84379506Y-99092405D01*
X84324409Y-99257804D01*
X85217000Y-100150395D01*
X85975424Y-99391971D01*
X88118821Y-99391971D01*
X88276058Y-99772515D01*
X88566954Y-100063919D01*
X88947223Y-100221820D01*
X89358971Y-100222179D01*
X89739515Y-100064942D01*
X89855659Y-99949000D01*
X110490000Y-99949000D01*
X110781605Y-99890996D01*
X111028815Y-99725815D01*
X111728815Y-99025816D01*
X111893996Y-98778605D01*
X111918509Y-98655370D01*
X111945884Y-98517748D01*
X112397800Y-98331020D01*
X112998909Y-97730959D01*
X113190068Y-97270598D01*
X113378980Y-97727800D01*
X113979041Y-98328909D01*
X114763459Y-98654628D01*
X115612815Y-98655370D01*
X116397800Y-98331020D01*
X116998909Y-97730959D01*
X117169357Y-97320475D01*
X117378980Y-97827800D01*
X117979041Y-98428909D01*
X118763459Y-98754628D01*
X119612815Y-98755370D01*
X120397800Y-98431020D01*
X120998909Y-97830959D01*
X121210778Y-97320722D01*
X121378980Y-97727800D01*
X121979041Y-98328909D01*
X122763459Y-98654628D01*
X123612815Y-98655370D01*
X124397800Y-98331020D01*
X124998909Y-97730959D01*
X125324628Y-96946541D01*
X125324631Y-96942815D01*
X127554630Y-96942815D01*
X127878980Y-97727800D01*
X128479041Y-98328909D01*
X129263459Y-98654628D01*
X130112815Y-98655370D01*
X130897800Y-98331020D01*
X131498909Y-97730959D01*
X131690068Y-97270598D01*
X131878980Y-97727800D01*
X132479041Y-98328909D01*
X133263459Y-98654628D01*
X134112815Y-98655370D01*
X134897800Y-98331020D01*
X135195368Y-98033970D01*
X136355635Y-98033970D01*
X136515418Y-98352739D01*
X137306187Y-98662723D01*
X138155387Y-98646497D01*
X138864582Y-98352739D01*
X139024365Y-98033970D01*
X137690000Y-96699605D01*
X136355635Y-98033970D01*
X135195368Y-98033970D01*
X135498909Y-97730959D01*
X135685849Y-97280757D01*
X135857261Y-97694582D01*
X136176030Y-97854365D01*
X137510395Y-96520000D01*
X137869605Y-96520000D01*
X139203970Y-97854365D01*
X139522739Y-97694582D01*
X139832723Y-96903813D01*
X139816497Y-96054613D01*
X139522739Y-95345418D01*
X139203970Y-95185635D01*
X137869605Y-96520000D01*
X137510395Y-96520000D01*
X136176030Y-95185635D01*
X135857261Y-95345418D01*
X135690510Y-95770800D01*
X135501020Y-95312200D01*
X135195384Y-95006030D01*
X136355635Y-95006030D01*
X137690000Y-96340395D01*
X139024365Y-95006030D01*
X138864582Y-94687261D01*
X138073813Y-94377277D01*
X137224613Y-94393503D01*
X136515418Y-94687261D01*
X136355635Y-95006030D01*
X135195384Y-95006030D01*
X134900959Y-94711091D01*
X134116541Y-94385372D01*
X133267185Y-94384630D01*
X132482200Y-94708980D01*
X131881091Y-95309041D01*
X131689932Y-95769402D01*
X131501020Y-95312200D01*
X130900959Y-94711091D01*
X130116541Y-94385372D01*
X129267185Y-94384630D01*
X128482200Y-94708980D01*
X127881091Y-95309041D01*
X127555372Y-96093459D01*
X127554630Y-96942815D01*
X125324631Y-96942815D01*
X125325370Y-96097185D01*
X125001020Y-95312200D01*
X124400959Y-94711091D01*
X123616541Y-94385372D01*
X122767185Y-94384630D01*
X121982200Y-94708980D01*
X121381091Y-95309041D01*
X121169222Y-95819278D01*
X121001020Y-95412200D01*
X120400959Y-94811091D01*
X119616541Y-94485372D01*
X118767185Y-94484630D01*
X117982200Y-94808980D01*
X117381091Y-95409041D01*
X117210643Y-95819525D01*
X117001020Y-95312200D01*
X116400959Y-94711091D01*
X115616541Y-94385372D01*
X114767185Y-94384630D01*
X113982200Y-94708980D01*
X113381091Y-95309041D01*
X113189932Y-95769402D01*
X113001020Y-95312200D01*
X112400959Y-94711091D01*
X111616541Y-94385372D01*
X110767185Y-94384630D01*
X109982200Y-94708980D01*
X109381091Y-95309041D01*
X109055372Y-96093459D01*
X109054630Y-96942815D01*
X109378980Y-97727800D01*
X109979041Y-98328909D01*
X110184957Y-98414413D01*
X110174370Y-98425000D01*
X96263064Y-98425000D01*
X96962686Y-98135922D01*
X97499039Y-97600505D01*
X97789668Y-96900590D01*
X97790330Y-96142735D01*
X97500922Y-95442314D01*
X96965505Y-94905961D01*
X96265590Y-94615332D01*
X95507735Y-94614670D01*
X94807314Y-94904078D01*
X94270961Y-95439495D01*
X93980332Y-96139410D01*
X93979670Y-96897265D01*
X94269078Y-97597686D01*
X94804495Y-98134039D01*
X95504410Y-98424668D01*
X95884482Y-98425000D01*
X89855765Y-98425000D01*
X89741046Y-98310081D01*
X89360777Y-98152180D01*
X88949029Y-98151821D01*
X88568485Y-98309058D01*
X88277081Y-98599954D01*
X88119180Y-98980223D01*
X88118821Y-99391971D01*
X85975424Y-99391971D01*
X86109591Y-99257804D01*
X86054647Y-99092862D01*
X86079149Y-99082738D01*
X86508231Y-98654404D01*
X86740735Y-98094472D01*
X86741264Y-97488188D01*
X86509738Y-96927851D01*
X86102263Y-96519664D01*
X86508231Y-96114404D01*
X86740735Y-95554472D01*
X86741264Y-94948188D01*
X86509738Y-94387851D01*
X86102263Y-93979664D01*
X86508231Y-93574404D01*
X86740735Y-93014472D01*
X86741264Y-92408188D01*
X86509738Y-91847851D01*
X86289008Y-91626736D01*
X86303217Y-91624062D01*
X86519341Y-91484990D01*
X86664331Y-91272790D01*
X86682662Y-91182265D01*
X93979670Y-91182265D01*
X94269078Y-91882686D01*
X94804495Y-92419039D01*
X95504410Y-92709668D01*
X96262265Y-92710330D01*
X96962686Y-92420922D01*
X97499039Y-91885505D01*
X97789668Y-91185590D01*
X97790330Y-90427735D01*
X97500922Y-89727314D01*
X96965505Y-89190961D01*
X96265590Y-88900332D01*
X95507735Y-88899670D01*
X94807314Y-89189078D01*
X94270961Y-89724495D01*
X93980332Y-90424410D01*
X93979670Y-91182265D01*
X86682662Y-91182265D01*
X86715340Y-91020900D01*
X86715340Y-89319100D01*
X86671062Y-89083783D01*
X86531990Y-88867659D01*
X86319790Y-88722669D01*
X86067900Y-88671660D01*
X84366100Y-88671660D01*
X84130783Y-88715938D01*
X83914659Y-88855010D01*
X83769669Y-89067210D01*
X83718660Y-89319100D01*
X83718660Y-91020900D01*
X83762938Y-91256217D01*
X83902010Y-91472341D01*
X84114210Y-91617331D01*
X84147649Y-91624103D01*
X83925769Y-91845596D01*
X83693265Y-92405528D01*
X83692736Y-93011812D01*
X81990000Y-93011812D01*
X81990000Y-87070000D01*
X145340000Y-87070000D01*
X145340000Y-105970000D01*
M02*
