G04 #@! TF.FileFunction,Legend,Top*
%FSLAX46Y46*%
G04 Gerber Fmt 4.6, Leading zero omitted, Abs format (unit mm)*
G04 Created by KiCad (PCBNEW 4.0.2-1.fc23-product) date Wed 28 Dec 2016 04:25:50 PM CST*
%MOMM*%
G01*
G04 APERTURE LIST*
%ADD10C,0.100000*%
%ADD11C,0.300000*%
%ADD12C,0.150000*%
G04 APERTURE END LIST*
D10*
D11*
X89459714Y-104152000D02*
X89316857Y-104080571D01*
X89102571Y-104080571D01*
X88888286Y-104152000D01*
X88745428Y-104294857D01*
X88674000Y-104437714D01*
X88602571Y-104723429D01*
X88602571Y-104937714D01*
X88674000Y-105223429D01*
X88745428Y-105366286D01*
X88888286Y-105509143D01*
X89102571Y-105580571D01*
X89245428Y-105580571D01*
X89459714Y-105509143D01*
X89531143Y-105437714D01*
X89531143Y-104937714D01*
X89245428Y-104937714D01*
X90174000Y-104580571D02*
X90174000Y-105580571D01*
X90174000Y-104723429D02*
X90245428Y-104652000D01*
X90388286Y-104580571D01*
X90602571Y-104580571D01*
X90745428Y-104652000D01*
X90816857Y-104794857D01*
X90816857Y-105580571D01*
X92174000Y-105580571D02*
X92174000Y-104080571D01*
X92174000Y-105509143D02*
X92031143Y-105580571D01*
X91745429Y-105580571D01*
X91602571Y-105509143D01*
X91531143Y-105437714D01*
X91459714Y-105294857D01*
X91459714Y-104866286D01*
X91531143Y-104723429D01*
X91602571Y-104652000D01*
X91745429Y-104580571D01*
X92031143Y-104580571D01*
X92174000Y-104652000D01*
X99032286Y-102897714D02*
X98960857Y-102969143D01*
X98746571Y-103040571D01*
X98603714Y-103040571D01*
X98389429Y-102969143D01*
X98246571Y-102826286D01*
X98175143Y-102683429D01*
X98103714Y-102397714D01*
X98103714Y-102183429D01*
X98175143Y-101897714D01*
X98246571Y-101754857D01*
X98389429Y-101612000D01*
X98603714Y-101540571D01*
X98746571Y-101540571D01*
X98960857Y-101612000D01*
X99032286Y-101683429D01*
X99889429Y-103040571D02*
X99746571Y-102969143D01*
X99675143Y-102826286D01*
X99675143Y-101540571D01*
X100460857Y-103040571D02*
X100460857Y-101540571D01*
X100603714Y-102469143D02*
X101032285Y-103040571D01*
X101032285Y-102040571D02*
X100460857Y-102612000D01*
X98746715Y-97198571D02*
X98032429Y-97198571D01*
X98032429Y-95698571D01*
X99889572Y-97198571D02*
X99889572Y-96412857D01*
X99818143Y-96270000D01*
X99675286Y-96198571D01*
X99389572Y-96198571D01*
X99246715Y-96270000D01*
X99889572Y-97127143D02*
X99746715Y-97198571D01*
X99389572Y-97198571D01*
X99246715Y-97127143D01*
X99175286Y-96984286D01*
X99175286Y-96841429D01*
X99246715Y-96698571D01*
X99389572Y-96627143D01*
X99746715Y-96627143D01*
X99889572Y-96555714D01*
X100389572Y-96198571D02*
X100961001Y-96198571D01*
X100603858Y-95698571D02*
X100603858Y-96984286D01*
X100675286Y-97127143D01*
X100818144Y-97198571D01*
X100961001Y-97198571D01*
X102103858Y-97127143D02*
X101961001Y-97198571D01*
X101675287Y-97198571D01*
X101532429Y-97127143D01*
X101461001Y-97055714D01*
X101389572Y-96912857D01*
X101389572Y-96484286D01*
X101461001Y-96341429D01*
X101532429Y-96270000D01*
X101675287Y-96198571D01*
X101961001Y-96198571D01*
X102103858Y-96270000D01*
X102746715Y-97198571D02*
X102746715Y-95698571D01*
X103389572Y-97198571D02*
X103389572Y-96412857D01*
X103318143Y-96270000D01*
X103175286Y-96198571D01*
X102961001Y-96198571D01*
X102818143Y-96270000D01*
X102746715Y-96341429D01*
X98024429Y-91483571D02*
X98024429Y-89983571D01*
X98381572Y-89983571D01*
X98595857Y-90055000D01*
X98738715Y-90197857D01*
X98810143Y-90340714D01*
X98881572Y-90626429D01*
X98881572Y-90840714D01*
X98810143Y-91126429D01*
X98738715Y-91269286D01*
X98595857Y-91412143D01*
X98381572Y-91483571D01*
X98024429Y-91483571D01*
X100167286Y-91483571D02*
X100167286Y-90697857D01*
X100095857Y-90555000D01*
X99953000Y-90483571D01*
X99667286Y-90483571D01*
X99524429Y-90555000D01*
X100167286Y-91412143D02*
X100024429Y-91483571D01*
X99667286Y-91483571D01*
X99524429Y-91412143D01*
X99453000Y-91269286D01*
X99453000Y-91126429D01*
X99524429Y-90983571D01*
X99667286Y-90912143D01*
X100024429Y-90912143D01*
X100167286Y-90840714D01*
X100667286Y-90483571D02*
X101238715Y-90483571D01*
X100881572Y-89983571D02*
X100881572Y-91269286D01*
X100953000Y-91412143D01*
X101095858Y-91483571D01*
X101238715Y-91483571D01*
X102381572Y-91483571D02*
X102381572Y-90697857D01*
X102310143Y-90555000D01*
X102167286Y-90483571D01*
X101881572Y-90483571D01*
X101738715Y-90555000D01*
X102381572Y-91412143D02*
X102238715Y-91483571D01*
X101881572Y-91483571D01*
X101738715Y-91412143D01*
X101667286Y-91269286D01*
X101667286Y-91126429D01*
X101738715Y-90983571D01*
X101881572Y-90912143D01*
X102238715Y-90912143D01*
X102381572Y-90840714D01*
X104019429Y-105326571D02*
X104019429Y-103826571D01*
X104590857Y-103826571D01*
X104733715Y-103898000D01*
X104805143Y-103969429D01*
X104876572Y-104112286D01*
X104876572Y-104326571D01*
X104805143Y-104469429D01*
X104733715Y-104540857D01*
X104590857Y-104612286D01*
X104019429Y-104612286D01*
X105519429Y-105326571D02*
X105519429Y-103826571D01*
X106019429Y-104898000D01*
X106519429Y-103826571D01*
X106519429Y-105326571D01*
X107519429Y-103826571D02*
X107805143Y-103826571D01*
X107948001Y-103898000D01*
X108090858Y-104040857D01*
X108162286Y-104326571D01*
X108162286Y-104826571D01*
X108090858Y-105112286D01*
X107948001Y-105255143D01*
X107805143Y-105326571D01*
X107519429Y-105326571D01*
X107376572Y-105255143D01*
X107233715Y-105112286D01*
X107162286Y-104826571D01*
X107162286Y-104326571D01*
X107233715Y-104040857D01*
X107376572Y-103898000D01*
X107519429Y-103826571D01*
X108805144Y-105326571D02*
X108805144Y-103826571D01*
X109162287Y-103826571D01*
X109376572Y-103898000D01*
X109519430Y-104040857D01*
X109590858Y-104183714D01*
X109662287Y-104469429D01*
X109662287Y-104683714D01*
X109590858Y-104969429D01*
X109519430Y-105112286D01*
X109376572Y-105255143D01*
X109162287Y-105326571D01*
X108805144Y-105326571D01*
X110305144Y-104755143D02*
X111448001Y-104755143D01*
X113019430Y-105183714D02*
X112948001Y-105255143D01*
X112733715Y-105326571D01*
X112590858Y-105326571D01*
X112376573Y-105255143D01*
X112233715Y-105112286D01*
X112162287Y-104969429D01*
X112090858Y-104683714D01*
X112090858Y-104469429D01*
X112162287Y-104183714D01*
X112233715Y-104040857D01*
X112376573Y-103898000D01*
X112590858Y-103826571D01*
X112733715Y-103826571D01*
X112948001Y-103898000D01*
X113019430Y-103969429D01*
X113876573Y-105326571D02*
X113733715Y-105255143D01*
X113662287Y-105183714D01*
X113590858Y-105040857D01*
X113590858Y-104612286D01*
X113662287Y-104469429D01*
X113733715Y-104398000D01*
X113876573Y-104326571D01*
X114090858Y-104326571D01*
X114233715Y-104398000D01*
X114305144Y-104469429D01*
X114376573Y-104612286D01*
X114376573Y-105040857D01*
X114305144Y-105183714D01*
X114233715Y-105255143D01*
X114090858Y-105326571D01*
X113876573Y-105326571D01*
X115019430Y-105326571D02*
X115019430Y-104326571D01*
X115019430Y-104469429D02*
X115090858Y-104398000D01*
X115233716Y-104326571D01*
X115448001Y-104326571D01*
X115590858Y-104398000D01*
X115662287Y-104540857D01*
X115662287Y-105326571D01*
X115662287Y-104540857D02*
X115733716Y-104398000D01*
X115876573Y-104326571D01*
X116090858Y-104326571D01*
X116233716Y-104398000D01*
X116305144Y-104540857D01*
X116305144Y-105326571D01*
X117019430Y-104326571D02*
X117019430Y-105826571D01*
X117019430Y-104398000D02*
X117162287Y-104326571D01*
X117448001Y-104326571D01*
X117590858Y-104398000D01*
X117662287Y-104469429D01*
X117733716Y-104612286D01*
X117733716Y-105040857D01*
X117662287Y-105183714D01*
X117590858Y-105255143D01*
X117448001Y-105326571D01*
X117162287Y-105326571D01*
X117019430Y-105255143D01*
X119019430Y-105326571D02*
X119019430Y-104540857D01*
X118948001Y-104398000D01*
X118805144Y-104326571D01*
X118519430Y-104326571D01*
X118376573Y-104398000D01*
X119019430Y-105255143D02*
X118876573Y-105326571D01*
X118519430Y-105326571D01*
X118376573Y-105255143D01*
X118305144Y-105112286D01*
X118305144Y-104969429D01*
X118376573Y-104826571D01*
X118519430Y-104755143D01*
X118876573Y-104755143D01*
X119019430Y-104683714D01*
X119519430Y-104326571D02*
X120090859Y-104326571D01*
X119733716Y-103826571D02*
X119733716Y-105112286D01*
X119805144Y-105255143D01*
X119948002Y-105326571D01*
X120090859Y-105326571D01*
X120590859Y-105326571D02*
X120590859Y-104326571D01*
X120590859Y-103826571D02*
X120519430Y-103898000D01*
X120590859Y-103969429D01*
X120662287Y-103898000D01*
X120590859Y-103826571D01*
X120590859Y-103969429D01*
X121305145Y-105326571D02*
X121305145Y-103826571D01*
X121305145Y-104398000D02*
X121448002Y-104326571D01*
X121733716Y-104326571D01*
X121876573Y-104398000D01*
X121948002Y-104469429D01*
X122019431Y-104612286D01*
X122019431Y-105040857D01*
X121948002Y-105183714D01*
X121876573Y-105255143D01*
X121733716Y-105326571D01*
X121448002Y-105326571D01*
X121305145Y-105255143D01*
X122876574Y-105326571D02*
X122733716Y-105255143D01*
X122662288Y-105112286D01*
X122662288Y-103826571D01*
X124019430Y-105255143D02*
X123876573Y-105326571D01*
X123590859Y-105326571D01*
X123448002Y-105255143D01*
X123376573Y-105112286D01*
X123376573Y-104540857D01*
X123448002Y-104398000D01*
X123590859Y-104326571D01*
X123876573Y-104326571D01*
X124019430Y-104398000D01*
X124090859Y-104540857D01*
X124090859Y-104683714D01*
X123376573Y-104826571D01*
X125805144Y-105255143D02*
X126019430Y-105326571D01*
X126376573Y-105326571D01*
X126519430Y-105255143D01*
X126590859Y-105183714D01*
X126662287Y-105040857D01*
X126662287Y-104898000D01*
X126590859Y-104755143D01*
X126519430Y-104683714D01*
X126376573Y-104612286D01*
X126090859Y-104540857D01*
X125948001Y-104469429D01*
X125876573Y-104398000D01*
X125805144Y-104255143D01*
X125805144Y-104112286D01*
X125876573Y-103969429D01*
X125948001Y-103898000D01*
X126090859Y-103826571D01*
X126448001Y-103826571D01*
X126662287Y-103898000D01*
X127305144Y-105326571D02*
X127305144Y-103826571D01*
X128162287Y-105326571D01*
X128162287Y-103826571D01*
X128876573Y-104540857D02*
X129376573Y-104540857D01*
X129590859Y-105326571D02*
X128876573Y-105326571D01*
X128876573Y-103826571D01*
X129590859Y-103826571D01*
X130162287Y-105255143D02*
X130376573Y-105326571D01*
X130733716Y-105326571D01*
X130876573Y-105255143D01*
X130948002Y-105183714D01*
X131019430Y-105040857D01*
X131019430Y-104898000D01*
X130948002Y-104755143D01*
X130876573Y-104683714D01*
X130733716Y-104612286D01*
X130448002Y-104540857D01*
X130305144Y-104469429D01*
X130233716Y-104398000D01*
X130162287Y-104255143D01*
X130162287Y-104112286D01*
X130233716Y-103969429D01*
X130305144Y-103898000D01*
X130448002Y-103826571D01*
X130805144Y-103826571D01*
X131019430Y-103898000D01*
X133662287Y-105183714D02*
X133590858Y-105255143D01*
X133376572Y-105326571D01*
X133233715Y-105326571D01*
X133019430Y-105255143D01*
X132876572Y-105112286D01*
X132805144Y-104969429D01*
X132733715Y-104683714D01*
X132733715Y-104469429D01*
X132805144Y-104183714D01*
X132876572Y-104040857D01*
X133019430Y-103898000D01*
X133233715Y-103826571D01*
X133376572Y-103826571D01*
X133590858Y-103898000D01*
X133662287Y-103969429D01*
X134519430Y-105326571D02*
X134376572Y-105255143D01*
X134305144Y-105183714D01*
X134233715Y-105040857D01*
X134233715Y-104612286D01*
X134305144Y-104469429D01*
X134376572Y-104398000D01*
X134519430Y-104326571D01*
X134733715Y-104326571D01*
X134876572Y-104398000D01*
X134948001Y-104469429D01*
X135019430Y-104612286D01*
X135019430Y-105040857D01*
X134948001Y-105183714D01*
X134876572Y-105255143D01*
X134733715Y-105326571D01*
X134519430Y-105326571D01*
X135662287Y-104326571D02*
X135662287Y-105326571D01*
X135662287Y-104469429D02*
X135733715Y-104398000D01*
X135876573Y-104326571D01*
X136090858Y-104326571D01*
X136233715Y-104398000D01*
X136305144Y-104540857D01*
X136305144Y-105326571D01*
X137019430Y-104326571D02*
X137019430Y-105326571D01*
X137019430Y-104469429D02*
X137090858Y-104398000D01*
X137233716Y-104326571D01*
X137448001Y-104326571D01*
X137590858Y-104398000D01*
X137662287Y-104540857D01*
X137662287Y-105326571D01*
X138948001Y-105255143D02*
X138805144Y-105326571D01*
X138519430Y-105326571D01*
X138376573Y-105255143D01*
X138305144Y-105112286D01*
X138305144Y-104540857D01*
X138376573Y-104398000D01*
X138519430Y-104326571D01*
X138805144Y-104326571D01*
X138948001Y-104398000D01*
X139019430Y-104540857D01*
X139019430Y-104683714D01*
X138305144Y-104826571D01*
X140305144Y-105255143D02*
X140162287Y-105326571D01*
X139876573Y-105326571D01*
X139733715Y-105255143D01*
X139662287Y-105183714D01*
X139590858Y-105040857D01*
X139590858Y-104612286D01*
X139662287Y-104469429D01*
X139733715Y-104398000D01*
X139876573Y-104326571D01*
X140162287Y-104326571D01*
X140305144Y-104398000D01*
X140733715Y-104326571D02*
X141305144Y-104326571D01*
X140948001Y-103826571D02*
X140948001Y-105112286D01*
X141019429Y-105255143D01*
X141162287Y-105326571D01*
X141305144Y-105326571D01*
X142019430Y-105326571D02*
X141876572Y-105255143D01*
X141805144Y-105183714D01*
X141733715Y-105040857D01*
X141733715Y-104612286D01*
X141805144Y-104469429D01*
X141876572Y-104398000D01*
X142019430Y-104326571D01*
X142233715Y-104326571D01*
X142376572Y-104398000D01*
X142448001Y-104469429D01*
X142519430Y-104612286D01*
X142519430Y-105040857D01*
X142448001Y-105183714D01*
X142376572Y-105255143D01*
X142233715Y-105326571D01*
X142019430Y-105326571D01*
X143162287Y-105326571D02*
X143162287Y-104326571D01*
X143162287Y-104612286D02*
X143233715Y-104469429D01*
X143305144Y-104398000D01*
X143448001Y-104326571D01*
X143590858Y-104326571D01*
D12*
X83947000Y-91440000D02*
X86487000Y-91440000D01*
X83947000Y-88900000D02*
X86487000Y-88900000D01*
X86487000Y-88900000D02*
X86487000Y-104140000D01*
X86487000Y-104140000D02*
X83947000Y-104140000D01*
X83947000Y-104140000D02*
X83947000Y-88900000D01*
X105390000Y-102720000D02*
X137790000Y-102720000D01*
X105390000Y-90320000D02*
X137690000Y-90320000D01*
X137740000Y-102720000D02*
G75*
G03X143940000Y-96520000I0J6200000D01*
G01*
X143940000Y-96520000D02*
G75*
G03X137740000Y-90320000I-6200000J0D01*
G01*
X105390000Y-102720000D02*
X105390000Y-90320000D01*
X86955381Y-91265333D02*
X87669667Y-91265333D01*
X87812524Y-91312953D01*
X87907762Y-91408191D01*
X87955381Y-91551048D01*
X87955381Y-91646286D01*
X87955381Y-90265333D02*
X87955381Y-90836762D01*
X87955381Y-90551048D02*
X86955381Y-90551048D01*
X87098238Y-90646286D01*
X87193476Y-90741524D01*
X87241095Y-90836762D01*
X106751381Y-97258095D02*
X105751381Y-97258095D01*
X105751381Y-96877142D01*
X105799000Y-96781904D01*
X105846619Y-96734285D01*
X105941857Y-96686666D01*
X106084714Y-96686666D01*
X106179952Y-96734285D01*
X106227571Y-96781904D01*
X106275190Y-96877142D01*
X106275190Y-97258095D01*
X106751381Y-95734285D02*
X106751381Y-96305714D01*
X106751381Y-96020000D02*
X105751381Y-96020000D01*
X105894238Y-96115238D01*
X105989476Y-96210476D01*
X106037095Y-96305714D01*
M02*
