G04 #@! TF.FileFunction,Copper,L1,Top,Signal*
%FSLAX46Y46*%
G04 Gerber Fmt 4.6, Leading zero omitted, Abs format (unit mm)*
G04 Created by KiCad (PCBNEW 4.0.2-1.fc23-product) date Wed 28 Dec 2016 04:25:50 PM CST*
%MOMM*%
G01*
G04 APERTURE LIST*
%ADD10C,0.100000*%
%ADD11R,1.701800X1.701800*%
%ADD12C,1.778000*%
%ADD13C,2.540000*%
%ADD14C,3.500000*%
%ADD15C,0.800000*%
%ADD16C,0.254000*%
%ADD17C,0.250000*%
G04 APERTURE END LIST*
D10*
D11*
X85217000Y-90170000D03*
D12*
X85217000Y-92710000D03*
X85217000Y-95250000D03*
X85217000Y-97790000D03*
X85217000Y-100330000D03*
X85217000Y-102870000D03*
D13*
X95885000Y-90805000D03*
X95885000Y-96520000D03*
X95885000Y-102362000D03*
X90551000Y-102362000D03*
D14*
X111190000Y-96520000D03*
X115190000Y-96520000D03*
X119190000Y-96620000D03*
X123190000Y-96520000D03*
X129690000Y-96520000D03*
X133690000Y-96520000D03*
X137690000Y-96520000D03*
D15*
X89154000Y-99187000D03*
D16*
X95885000Y-90805000D02*
X98171000Y-90805000D01*
X118872000Y-92202000D02*
X123190000Y-96520000D01*
X99568000Y-92202000D02*
X118872000Y-92202000D01*
X98171000Y-90805000D02*
X99568000Y-92202000D01*
X85217000Y-90170000D02*
X95250000Y-90170000D01*
X95250000Y-90170000D02*
X95885000Y-90805000D01*
X95885000Y-96520000D02*
X99441000Y-96520000D01*
X115534000Y-92964000D02*
X119190000Y-96620000D01*
X102997000Y-92964000D02*
X115534000Y-92964000D01*
X99441000Y-96520000D02*
X102997000Y-92964000D01*
X85217000Y-92710000D02*
X92075000Y-92710000D01*
X92075000Y-92710000D02*
X95885000Y-96520000D01*
X93345000Y-99822000D02*
X98044000Y-99822000D01*
X112396000Y-93726000D02*
X115190000Y-96520000D01*
X104140000Y-93726000D02*
X112396000Y-93726000D01*
X98044000Y-99822000D02*
X104140000Y-93726000D01*
X85217000Y-95250000D02*
X88773000Y-95250000D01*
X88773000Y-95250000D02*
X93345000Y-99822000D01*
X93345000Y-99822000D02*
X95885000Y-102362000D01*
D17*
X95885000Y-102362000D02*
X95885000Y-102235000D01*
D16*
X85217000Y-102870000D02*
X85471000Y-102870000D01*
X85471000Y-102870000D02*
X89154000Y-99187000D01*
M02*
